<?xml version='1.0' encoding='utf-8'?>
<svg xmlns="http://www.w3.org/2000/svg" xmlns:dc="http://purl.org/dc/elements/1.1/" xmlns:ns2="http://creativecommons.org/ns#" xmlns:rdf="http://www.w3.org/1999/02/22-rdf-syntax-ns#" xmlns:xlink="http://www.w3.org/1999/xlink" width="288pt" height="216pt" viewBox="0 0 288 216" version="1.1">
 <metadata>
  <rdf:RDF>
   <ns2:Work>
    <dc:type rdf:resource="http://purl.org/dc/dcmitype/StillImage" />
    <dc:date>2025-01-02T20:31:53.799294</dc:date>
    <dc:format>image/svg+xml</dc:format>
    <dc:creator>
     <ns2:Agent>
      <dc:title>Matplotlib v3.8.0, https://matplotlib.org/</dc:title>
     </ns2:Agent>
    </dc:creator>
   </ns2:Work>
  </rdf:RDF>
 </metadata>
 <defs>
  <style type="text/css">*{stroke-linejoin: round; stroke-linecap: butt}</style>
 </defs>
 <g id="figure_1">
  <g id="patch_1">
   <path d="M 0 216  L 288 216  L 288 0  L 0 0  z " style="fill: #ffffff" />
  </g>
  <g id="axes_1">
   <g id="patch_2">
    <path d="M 50.99 174.04  L 277.2 174.04  L 277.2 10.8  L 50.99 10.8  z " style="fill: #ffffff" />
   </g>
   <g id="matplotlib.axis_1">
    <g id="xtick_1">
     <g id="line2d_1">
      <defs>
       <path id="m2b6213fe7b" d="M 0 0  L 0 3.5  " style="stroke: #000000; stroke-width: 0.8" />
      </defs>
      <g>
       <use xlink:href="#m2b6213fe7b" x="61.272273" y="174.04" style="stroke: #000000; stroke-width: 0.8" />
      </g>
     </g>
     <g id="text_1">
      <text style="font: 10px 'DejaVu Sans', 'Bitstream Vera Sans', 'Computer Modern Sans Serif', 'Lucida Grande', 'Verdana', 'Geneva', 'Lucid', 'Arial', 'Helvetica', 'Avant Garde', sans-serif; text-anchor: middle" x="61.272273" y="188.638438" transform="rotate(-0 61.272273 188.638438)">0</text>
     </g>
    </g>
    <g id="xtick_2">
     <g id="line2d_2">
      <g>
       <use xlink:href="#m2b6213fe7b" x="118.074345" y="174.04" style="stroke: #000000; stroke-width: 0.8" />
      </g>
     </g>
     <g id="text_2">
      <text style="font: 10px 'DejaVu Sans', 'Bitstream Vera Sans', 'Computer Modern Sans Serif', 'Lucida Grande', 'Verdana', 'Geneva', 'Lucid', 'Arial', 'Helvetica', 'Avant Garde', sans-serif; text-anchor: middle" x="118.074345" y="188.638438" transform="rotate(-0 118.074345 188.638438)">200</text>
     </g>
    </g>
    <g id="xtick_3">
     <g id="line2d_3">
      <g>
       <use xlink:href="#m2b6213fe7b" x="174.876417" y="174.04" style="stroke: #000000; stroke-width: 0.8" />
      </g>
     </g>
     <g id="text_3">
      <text style="font: 10px 'DejaVu Sans', 'Bitstream Vera Sans', 'Computer Modern Sans Serif', 'Lucida Grande', 'Verdana', 'Geneva', 'Lucid', 'Arial', 'Helvetica', 'Avant Garde', sans-serif; text-anchor: middle" x="174.876417" y="188.638438" transform="rotate(-0 174.876417 188.638438)">400</text>
     </g>
    </g>
    <g id="xtick_4">
     <g id="line2d_4">
      <g>
       <use xlink:href="#m2b6213fe7b" x="231.678489" y="174.04" style="stroke: #000000; stroke-width: 0.8" />
      </g>
     </g>
     <g id="text_4">
      <text style="font: 10px 'DejaVu Sans', 'Bitstream Vera Sans', 'Computer Modern Sans Serif', 'Lucida Grande', 'Verdana', 'Geneva', 'Lucid', 'Arial', 'Helvetica', 'Avant Garde', sans-serif; text-anchor: middle" x="231.678489" y="188.638438" transform="rotate(-0 231.678489 188.638438)">600</text>
     </g>
    </g>
    <g id="text_5">
     <text style="font: 10px 'DejaVu Sans', 'Bitstream Vera Sans', 'Computer Modern Sans Serif', 'Lucida Grande', 'Verdana', 'Geneva', 'Lucid', 'Arial', 'Helvetica', 'Avant Garde', sans-serif; text-anchor: middle" x="164.095" y="202.316563" transform="rotate(-0 164.095 202.316563)">distance [px]</text>
    </g>
   </g>
   <g id="matplotlib.axis_2">
    <g id="ytick_1">
     <g id="line2d_5">
      <defs>
       <path id="ma2b6aaa63d" d="M 0 0  L -3.5 0  " style="stroke: #000000; stroke-width: 0.8" />
      </defs>
      <g>
       <use xlink:href="#ma2b6aaa63d" x="50.99" y="166.620291" style="stroke: #000000; stroke-width: 0.8" />
      </g>
     </g>
     <g id="text_6">
      <text style="font: 10px 'DejaVu Sans', 'Bitstream Vera Sans', 'Computer Modern Sans Serif', 'Lucida Grande', 'Verdana', 'Geneva', 'Lucid', 'Arial', 'Helvetica', 'Avant Garde', sans-serif; text-anchor: end" x="43.99" y="170.41951" transform="rotate(-0 43.99 170.41951)">0</text>
     </g>
    </g>
    <g id="ytick_2">
     <g id="line2d_6">
      <g>
       <use xlink:href="#ma2b6aaa63d" x="50.99" y="129.014864" style="stroke: #000000; stroke-width: 0.8" />
      </g>
     </g>
     <g id="text_7">
      <text style="font: 10px 'DejaVu Sans', 'Bitstream Vera Sans', 'Computer Modern Sans Serif', 'Lucida Grande', 'Verdana', 'Geneva', 'Lucid', 'Arial', 'Helvetica', 'Avant Garde', sans-serif; text-anchor: end" x="43.99" y="132.814083" transform="rotate(-0 43.99 132.814083)">200</text>
     </g>
    </g>
    <g id="ytick_3">
     <g id="line2d_7">
      <g>
       <use xlink:href="#ma2b6aaa63d" x="50.99" y="91.409437" style="stroke: #000000; stroke-width: 0.8" />
      </g>
     </g>
     <g id="text_8">
      <text style="font: 10px 'DejaVu Sans', 'Bitstream Vera Sans', 'Computer Modern Sans Serif', 'Lucida Grande', 'Verdana', 'Geneva', 'Lucid', 'Arial', 'Helvetica', 'Avant Garde', sans-serif; text-anchor: end" x="43.99" y="95.208655" transform="rotate(-0 43.99 95.208655)">400</text>
     </g>
    </g>
    <g id="ytick_4">
     <g id="line2d_8">
      <g>
       <use xlink:href="#ma2b6aaa63d" x="50.99" y="53.804009" style="stroke: #000000; stroke-width: 0.8" />
      </g>
     </g>
     <g id="text_9">
      <text style="font: 10px 'DejaVu Sans', 'Bitstream Vera Sans', 'Computer Modern Sans Serif', 'Lucida Grande', 'Verdana', 'Geneva', 'Lucid', 'Arial', 'Helvetica', 'Avant Garde', sans-serif; text-anchor: end" x="43.99" y="57.603228" transform="rotate(-0 43.99 57.603228)">600</text>
     </g>
    </g>
    <g id="ytick_5">
     <g id="line2d_9">
      <g>
       <use xlink:href="#ma2b6aaa63d" x="50.99" y="16.198582" style="stroke: #000000; stroke-width: 0.8" />
      </g>
     </g>
     <g id="text_10">
      <text style="font: 10px 'DejaVu Sans', 'Bitstream Vera Sans', 'Computer Modern Sans Serif', 'Lucida Grande', 'Verdana', 'Geneva', 'Lucid', 'Arial', 'Helvetica', 'Avant Garde', sans-serif; text-anchor: end" x="43.99" y="19.997801" transform="rotate(-0 43.99 19.997801)">800</text>
     </g>
    </g>
    <g id="text_11">
     <text style="font: 10px 'DejaVu Sans', 'Bitstream Vera Sans', 'Computer Modern Sans Serif', 'Lucida Grande', 'Verdana', 'Geneva', 'Lucid', 'Arial', 'Helvetica', 'Avant Garde', sans-serif; text-anchor: middle" x="18.822813" y="92.42" transform="rotate(-90 18.822813 92.42)">number of samples [1/px]</text>
    </g>
   </g>
   <g id="line2d_10">
    <path d="M 63.544356 59.337566  L 66.036732 123.15333  L 69.441495 112.118335  L 73.758646 85.062563  L 78.988184 110.588027  L 85.130109 98.011118  L 92.184422 103.553139  L 100.151121 113.24535  L 109.030208 119.859231  L 118.821683 122.164879  L 129.525545 130.483594  L 141.141793 136.020536  L 153.67043 142.066356  L 167.111453 148.473092  L 181.464864 154.741226  L 196.730662 160.620928  L 212.908847 164.765166  L 229.99942 166.220716  L 248.00238 166.577839  L 266.917727 166.619865  " clip-path="url(#p563bafdfc9)" style="fill: none; stroke: #1f77b4; stroke-opacity: 0.7; stroke-width: 1.5; stroke-linecap: square" />
   </g>
   <g id="line2d_11">
    <path d="M 63.544356 37.626652  L 66.036732 123.747924  L 69.441495 113.755769  L 73.758646 82.346119  L 78.988184 111.182715  L 85.130109 96.996817  L 92.184422 102.31442  L 100.151121 112.87477  L 109.030208 119.786282  L 118.821683 122.117608  L 129.525545 130.619745  L 141.141793 136.158444  L 153.67043 142.065874  L 167.111453 148.529405  L 181.464864 154.777558  L 196.730662 160.665965  L 212.908847 164.822866  L 229.99942 166.233484  L 248.00238 166.581617  L 266.917727 166.62  " clip-path="url(#p563bafdfc9)" style="fill: none; stroke: #ff7f0e; stroke-opacity: 0.7; stroke-width: 1.5; stroke-linecap: square" />
   </g>
   <g id="line2d_12">
    <path d="M 63.544356 48.444697  L 66.036732 127.284651  L 69.441495 113.616321  L 73.758646 84.162559  L 78.988184 111.603791  L 85.130109 97.578239  L 92.184422 103.046737  L 100.151121 113.186867  L 109.030208 119.815854  L 118.821683 122.220797  L 129.525545 130.586932  L 141.141793 136.098153  L 153.67043 142.047638  L 167.111453 148.49882  L 181.464864 154.760071  L 196.730662 160.600968  L 212.908847 164.745551  L 229.99942 166.214495  L 248.00238 166.576699  L 266.917727 166.619922  " clip-path="url(#p563bafdfc9)" style="fill: none; stroke: #2ca02c; stroke-opacity: 0.7; stroke-width: 1.5; stroke-linecap: square" />
   </g>
   <g id="line2d_13">
    <path d="M 63.544356 18.22  L 66.036732 129.178541  L 69.441495 113.217262  L 73.758646 84.271274  L 78.988184 111.955665  L 85.130109 97.109354  L 92.184422 103.024049  L 100.151121 113.110734  L 109.030208 119.675075  L 118.821683 122.244134  L 129.525545 130.578155  L 141.141793 136.051599  L 153.67043 142.058538  L 167.111453 148.473048  L 181.464864 154.821533  L 196.730662 160.649458  L 212.908847 164.755903  L 229.99942 166.220596  L 248.00238 166.57653  L 266.917727 166.619677  " clip-path="url(#p563bafdfc9)" style="fill: none; stroke: #d62728; stroke-opacity: 0.7; stroke-width: 1.5; stroke-linecap: square" />
   </g>
   <g id="line2d_14">
    <path d="M 63.544356 31.245045  L 66.036732 129.11908  L 69.441495 113.376886  L 73.758646 83.81391  L 78.988184 111.845137  L 85.130109 96.877022  L 92.184422 102.857505  L 100.151121 113.027313  L 109.030208 119.645503  L 118.821683 122.184618  L 129.525545 130.568837  L 141.141793 136.05856  L 153.67043 142.088187  L 167.111453 148.489268  L 181.464864 154.856935  L 196.730662 160.652991  L 212.908847 164.758847  L 229.99942 166.219609  L 248.00238 166.576011  L 266.917727 166.619537  " clip-path="url(#p563bafdfc9)" style="fill: none; stroke: #9467bd; stroke-opacity: 0.7; stroke-width: 1.5; stroke-linecap: square" />
   </g>
   <g id="patch_3">
    <path d="M 50.99 174.04  L 50.99 10.8  " style="fill: none; stroke: #000000; stroke-width: 0.8; stroke-linejoin: miter; stroke-linecap: square" />
   </g>
   <g id="patch_4">
    <path d="M 277.2 174.04  L 277.2 10.8  " style="fill: none; stroke: #000000; stroke-width: 0.8; stroke-linejoin: miter; stroke-linecap: square" />
   </g>
   <g id="patch_5">
    <path d="M 50.99 174.04  L 277.2 174.04  " style="fill: none; stroke: #000000; stroke-width: 0.8; stroke-linejoin: miter; stroke-linecap: square" />
   </g>
   <g id="patch_6">
    <path d="M 50.99 10.8  L 277.2 10.8  " style="fill: none; stroke: #000000; stroke-width: 0.8; stroke-linejoin: miter; stroke-linecap: square" />
   </g>
   <g id="legend_1">
    <g id="patch_7">
     <path d="M 181.698437 92.190625  L 270.2 92.190625  Q 272.2 92.190625 272.2 90.190625  L 272.2 17.8  Q 272.2 15.8 270.2 15.8  L 181.698437 15.8  Q 179.698437 15.8 179.698437 17.8  L 179.698437 90.190625  Q 179.698437 92.190625 181.698437 92.190625  z " style="fill: #ffffff; opacity: 0.8; stroke: #cccccc; stroke-linejoin: miter" />
    </g>
    <g id="line2d_15">
     <path d="M 183.698437 23.898438  L 193.698437 23.898438  L 203.698437 23.898438  " style="fill: none; stroke: #1f77b4; stroke-opacity: 0.7; stroke-width: 1.5; stroke-linecap: square" />
    </g>
    <g id="text_12">
     <text style="font: 10px 'DejaVu Sans', 'Bitstream Vera Sans', 'Computer Modern Sans Serif', 'Lucida Grande', 'Verdana', 'Geneva', 'Lucid', 'Arial', 'Helvetica', 'Avant Garde', sans-serif; text-anchor: start" x="211.698437" y="27.398438" transform="rotate(-0 211.698437 27.398438)">SD-1.5</text>
    </g>
    <g id="line2d_16">
     <path d="M 183.698437 38.576562  L 193.698437 38.576562  L 203.698437 38.576562  " style="fill: none; stroke: #ff7f0e; stroke-opacity: 0.7; stroke-width: 1.5; stroke-linecap: square" />
    </g>
    <g id="text_13">
     <text style="font: 10px 'DejaVu Sans', 'Bitstream Vera Sans', 'Computer Modern Sans Serif', 'Lucida Grande', 'Verdana', 'Geneva', 'Lucid', 'Arial', 'Helvetica', 'Avant Garde', sans-serif; text-anchor: start" x="211.698437" y="42.076562" transform="rotate(-0 211.698437 42.076562)">SD-2.1</text>
    </g>
    <g id="line2d_17">
     <path d="M 183.698437 53.254687  L 193.698437 53.254687  L 203.698437 53.254687  " style="fill: none; stroke: #2ca02c; stroke-opacity: 0.7; stroke-width: 1.5; stroke-linecap: square" />
    </g>
    <g id="text_14">
     <text style="font: 10px 'DejaVu Sans', 'Bitstream Vera Sans', 'Computer Modern Sans Serif', 'Lucida Grande', 'Verdana', 'Geneva', 'Lucid', 'Arial', 'Helvetica', 'Avant Garde', sans-serif; text-anchor: start" x="211.698437" y="56.754687" transform="rotate(-0 211.698437 56.754687)">SD-Turbo</text>
    </g>
    <g id="line2d_18">
     <path d="M 183.698437 67.932813  L 193.698437 67.932813  L 203.698437 67.932813  " style="fill: none; stroke: #d62728; stroke-opacity: 0.7; stroke-width: 1.5; stroke-linecap: square" />
    </g>
    <g id="text_15">
     <text style="font: 10px 'DejaVu Sans', 'Bitstream Vera Sans', 'Computer Modern Sans Serif', 'Lucida Grande', 'Verdana', 'Geneva', 'Lucid', 'Arial', 'Helvetica', 'Avant Garde', sans-serif; text-anchor: start" x="211.698437" y="71.432813" transform="rotate(-0 211.698437 71.432813)">SDXL</text>
    </g>
    <g id="line2d_19">
     <path d="M 183.698437 82.610938  L 193.698437 82.610938  L 203.698437 82.610938  " style="fill: none; stroke: #9467bd; stroke-opacity: 0.7; stroke-width: 1.5; stroke-linecap: square" />
    </g>
    <g id="text_16">
     <text style="font: 10px 'DejaVu Sans', 'Bitstream Vera Sans', 'Computer Modern Sans Serif', 'Lucida Grande', 'Verdana', 'Geneva', 'Lucid', 'Arial', 'Helvetica', 'Avant Garde', sans-serif; text-anchor: start" x="211.698437" y="86.110938" transform="rotate(-0 211.698437 86.110938)">SDXL-Turbo</text>
    </g>
   </g>
  </g>
 </g>
 <defs>
  <clipPath id="p563bafdfc9">
   <rect x="50.99" y="10.8" width="226.21" height="163.24" />
  </clipPath>
 </defs>
</svg>