<svg xmlns="http://www.w3.org/2000/svg" xmlns:dc="http://purl.org/dc/elements/1.1/" xmlns:ns2="http://creativecommons.org/ns#" xmlns:rdf="http://www.w3.org/1999/02/22-rdf-syntax-ns#" xmlns:xlink="http://www.w3.org/1999/xlink" width="244.8pt" height="165.6pt" viewBox="0 0 244.8 165.6" version="1.1">
 <metadata>
  <rdf:RDF>
   <ns2:Work>
    <dc:type rdf:resource="http://purl.org/dc/dcmitype/StillImage"/>
    <dc:date>2024-12-24T01:52:37.549146</dc:date>
    <dc:format>image/svg+xml</dc:format>
    <dc:creator>
     <ns2:Agent>
      <dc:title>Matplotlib v3.8.2, https://matplotlib.org/</dc:title>
     </ns2:Agent>
    </dc:creator>
   </ns2:Work>
  </rdf:RDF>
 </metadata>
 <defs>
  <style type="text/css">*{stroke-linejoin: round; stroke-linecap: butt}</style>
 </defs>
 <g id="figure_1">
  <g id="patch_1">
   <path d="M 0 165.6  L 244.8 165.6  L 244.8 0  L 0 0  z " style="fill: #ffffff"/>
  </g>
  <g id="axes_1">
   <g id="patch_2">
    <path d="M 57.56 127.24  L 226.37547 127.24  L 226.37547 10.8  L 57.56 10.8  z " style="fill: #ffffff"/>
   </g>
   <g id="patch_3">
    <path d="M 65.23343 77.241564  L 73.036919 77.241564  L 73.036919 16.092727  L 65.23343 16.092727  z " clip-path="url(#p927f0e2e3c)" style="fill: #ffa500"/>
   </g>
   <g id="patch_4">
    <path d="M 75.638082 77.241564  L 83.441571 77.241564  L 83.441571 18.879179  L 75.638082 18.879179  z " clip-path="url(#p927f0e2e3c)" style="fill: #ffa500"/>
   </g>
   <g id="patch_5">
    <path d="M 86.042733 77.241564  L 93.846222 77.241564  L 93.846222 21.451288  L 86.042733 21.451288  z " clip-path="url(#p927f0e2e3c)" style="fill: #ffa500"/>
   </g>
   <g id="patch_6">
    <path d="M 96.447385 77.241564  L 104.250873 77.241564  L 104.250873 23.992777  L 96.447385 23.992777  z " clip-path="url(#p927f0e2e3c)" style="fill: #ffa500"/>
   </g>
   <g id="patch_7">
    <path d="M 106.852036 77.241564  L 114.655525 77.241564  L 114.655525 26.90171  L 106.852036 26.90171  z " clip-path="url(#p927f0e2e3c)" style="fill: #ffa500"/>
   </g>
   <g id="patch_8">
    <path d="M 117.256688 77.241564  L 125.060176 77.241564  L 125.060176 30.668013  L 117.256688 30.668013  z " clip-path="url(#p927f0e2e3c)" style="fill: #ffa500"/>
   </g>
   <g id="patch_9">
    <path d="M 127.661339 77.241564  L 135.464828 77.241564  L 135.464828 34.158733  L 127.661339 34.158733  z " clip-path="url(#p927f0e2e3c)" style="fill: #ffa500"/>
   </g>
   <g id="patch_10">
    <path d="M 138.065991 77.241564  L 145.869479 77.241564  L 145.869479 38.139378  L 138.065991 38.139378  z " clip-path="url(#p927f0e2e3c)" style="fill: #ffa500"/>
   </g>
   <g id="patch_11">
    <path d="M 148.470642 77.241564  L 156.274131 77.241564  L 156.274131 43.038634  L 148.470642 43.038634  z " clip-path="url(#p927f0e2e3c)" style="fill: #ffa500"/>
   </g>
   <g id="patch_12">
    <path d="M 158.875294 77.241564  L 166.678782 77.241564  L 166.678782 49.101463  L 158.875294 49.101463  z " clip-path="url(#p927f0e2e3c)" style="fill: #ffa500"/>
   </g>
   <g id="patch_13">
    <path d="M 169.279945 77.241564  L 177.083434 77.241564  L 177.083434 57.154615  L 169.279945 57.154615  z " clip-path="url(#p927f0e2e3c)" style="fill: #ffa500"/>
   </g>
   <g id="patch_14">
    <path d="M 179.684597 77.241564  L 187.488085 77.241564  L 187.488085 70.290744  L 179.684597 70.290744  z " clip-path="url(#p927f0e2e3c)" style="fill: #ffa500"/>
   </g>
   <g id="patch_15">
    <path d="M 190.089248 77.241564  L 197.892737 77.241564  L 197.892737 77.088462  L 190.089248 77.088462  z " clip-path="url(#p927f0e2e3c)" style="fill: #ffa500"/>
   </g>
   <g id="patch_16">
    <path d="M 200.493899 77.241564  L 208.297388 77.241564  L 208.297388 77.241564  L 200.493899 77.241564  z " clip-path="url(#p927f0e2e3c)" style="fill: #ffa500"/>
   </g>
   <g id="patch_17">
    <path d="M 210.898551 77.241564  L 218.70204 77.241564  L 218.70204 77.241564  L 210.898551 77.241564  z " clip-path="url(#p927f0e2e3c)" style="fill: #ffa500"/>
   </g>
   <g id="patch_18">
    <path d="M 65.23343 77.241564  L 73.036919 77.241564  L 73.036919 32.964539  L 65.23343 32.964539  z " clip-path="url(#p927f0e2e3c)" style="fill: #008000"/>
   </g>
   <g id="patch_19">
    <path d="M 75.638082 77.241564  L 83.441571 77.241564  L 83.441571 33.178882  L 75.638082 33.178882  z " clip-path="url(#p927f0e2e3c)" style="fill: #008000"/>
   </g>
   <g id="patch_20">
    <path d="M 86.042733 77.241564  L 93.846222 77.241564  L 93.846222 33.454465  L 86.042733 33.454465  z " clip-path="url(#p927f0e2e3c)" style="fill: #008000"/>
   </g>
   <g id="patch_21">
    <path d="M 96.447385 77.241564  L 104.250873 77.241564  L 104.250873 33.821909  L 96.447385 33.821909  z " clip-path="url(#p927f0e2e3c)" style="fill: #008000"/>
   </g>
   <g id="patch_22">
    <path d="M 106.852036 77.241564  L 114.655525 77.241564  L 114.655525 34.403696  L 106.852036 34.403696  z " clip-path="url(#p927f0e2e3c)" style="fill: #008000"/>
   </g>
   <g id="patch_23">
    <path d="M 117.256688 77.241564  L 125.060176 77.241564  L 125.060176 35.720371  L 117.256688 35.720371  z " clip-path="url(#p927f0e2e3c)" style="fill: #008000"/>
   </g>
   <g id="patch_24">
    <path d="M 127.661339 77.241564  L 135.464828 77.241564  L 135.464828 37.863795  L 127.661339 37.863795  z " clip-path="url(#p927f0e2e3c)" style="fill: #008000"/>
   </g>
   <g id="patch_25">
    <path d="M 138.065991 77.241564  L 145.869479 77.241564  L 145.869479 40.589006  L 138.065991 40.589006  z " clip-path="url(#p927f0e2e3c)" style="fill: #008000"/>
   </g>
   <g id="patch_26">
    <path d="M 148.470642 77.241564  L 156.274131 77.241564  L 156.274131 44.232828  L 148.470642 44.232828  z " clip-path="url(#p927f0e2e3c)" style="fill: #008000"/>
   </g>
   <g id="patch_27">
    <path d="M 158.875294 77.241564  L 166.678782 77.241564  L 166.678782 49.74449  L 158.875294 49.74449  z " clip-path="url(#p927f0e2e3c)" style="fill: #008000"/>
   </g>
   <g id="patch_28">
    <path d="M 169.279945 77.241564  L 177.083434 77.241564  L 177.083434 57.368957  L 169.279945 57.368957  z " clip-path="url(#p927f0e2e3c)" style="fill: #008000"/>
   </g>
   <g id="patch_29">
    <path d="M 179.684597 77.241564  L 187.488085 77.241564  L 187.488085 70.321365  L 179.684597 70.321365  z " clip-path="url(#p927f0e2e3c)" style="fill: #008000"/>
   </g>
   <g id="patch_30">
    <path d="M 190.089248 77.241564  L 197.892737 77.241564  L 197.892737 77.088462  L 190.089248 77.088462  z " clip-path="url(#p927f0e2e3c)" style="fill: #008000"/>
   </g>
   <g id="patch_31">
    <path d="M 200.493899 77.241564  L 208.297388 77.241564  L 208.297388 77.241564  L 200.493899 77.241564  z " clip-path="url(#p927f0e2e3c)" style="fill: #008000"/>
   </g>
   <g id="patch_32">
    <path d="M 210.898551 77.241564  L 218.70204 77.241564  L 218.70204 77.241564  L 210.898551 77.241564  z " clip-path="url(#p927f0e2e3c)" style="fill: #008000"/>
   </g>
   <g id="patch_33">
    <path d="M 65.23343 77.241564  L 73.036919 77.241564  L 73.036919 77.670249  L 65.23343 77.670249  z " clip-path="url(#p927f0e2e3c)" style="fill: #800080"/>
   </g>
   <g id="patch_34">
    <path d="M 75.638082 77.241564  L 83.441571 77.241564  L 83.441571 77.884591  L 75.638082 77.884591  z " clip-path="url(#p927f0e2e3c)" style="fill: #800080"/>
   </g>
   <g id="patch_35">
    <path d="M 86.042733 77.241564  L 93.846222 77.241564  L 93.846222 78.160174  L 86.042733 78.160174  z " clip-path="url(#p927f0e2e3c)" style="fill: #800080"/>
   </g>
   <g id="patch_36">
    <path d="M 96.447385 77.241564  L 104.250873 77.241564  L 104.250873 78.527618  L 96.447385 78.527618  z " clip-path="url(#p927f0e2e3c)" style="fill: #800080"/>
   </g>
   <g id="patch_37">
    <path d="M 106.852036 77.241564  L 114.655525 77.241564  L 114.655525 79.109405  L 106.852036 79.109405  z " clip-path="url(#p927f0e2e3c)" style="fill: #800080"/>
   </g>
   <g id="patch_38">
    <path d="M 117.256688 77.241564  L 125.060176 77.241564  L 125.060176 80.42608  L 117.256688 80.42608  z " clip-path="url(#p927f0e2e3c)" style="fill: #800080"/>
   </g>
   <g id="patch_39">
    <path d="M 127.661339 77.241564  L 135.464828 77.241564  L 135.464828 82.569504  L 127.661339 82.569504  z " clip-path="url(#p927f0e2e3c)" style="fill: #800080"/>
   </g>
   <g id="patch_40">
    <path d="M 138.065991 77.241564  L 145.869479 77.241564  L 145.869479 85.294715  L 138.065991 85.294715  z " clip-path="url(#p927f0e2e3c)" style="fill: #800080"/>
   </g>
   <g id="patch_41">
    <path d="M 148.470642 77.241564  L 156.274131 77.241564  L 156.274131 88.938537  L 148.470642 88.938537  z " clip-path="url(#p927f0e2e3c)" style="fill: #800080"/>
   </g>
   <g id="patch_42">
    <path d="M 158.875294 77.241564  L 166.678782 77.241564  L 166.678782 94.4502  L 158.875294 94.4502  z " clip-path="url(#p927f0e2e3c)" style="fill: #800080"/>
   </g>
   <g id="patch_43">
    <path d="M 169.279945 77.241564  L 177.083434 77.241564  L 177.083434 102.074666  L 169.279945 102.074666  z " clip-path="url(#p927f0e2e3c)" style="fill: #800080"/>
   </g>
   <g id="patch_44">
    <path d="M 179.684597 77.241564  L 187.488085 77.241564  L 187.488085 115.027074  L 179.684597 115.027074  z " clip-path="url(#p927f0e2e3c)" style="fill: #800080"/>
   </g>
   <g id="patch_45">
    <path d="M 190.089248 77.241564  L 197.892737 77.241564  L 197.892737 121.794171  L 190.089248 121.794171  z " clip-path="url(#p927f0e2e3c)" style="fill: #800080"/>
   </g>
   <g id="patch_46">
    <path d="M 200.493899 77.241564  L 208.297388 77.241564  L 208.297388 121.947273  L 200.493899 121.947273  z " clip-path="url(#p927f0e2e3c)" style="fill: #800080"/>
   </g>
   <g id="patch_47">
    <path d="M 210.898551 77.241564  L 218.70204 77.241564  L 218.70204 121.947273  L 210.898551 121.947273  z " clip-path="url(#p927f0e2e3c)" style="fill: #800080"/>
   </g>
   <g id="matplotlib.axis_1">
    <g id="xtick_1">
     <g id="line2d_1">
      <defs>
       <path id="m754218740f" d="M 0 0  L 0 3.5  " style="stroke: #000000; stroke-width: 0.8"/>
      </defs>
      <g>
       <use xlink:href="#m754218740f" x="69.135175" y="127.24" style="stroke: #000000; stroke-width: 0.8"/>
      </g>
     </g>
     <g id="text_1">
      <text style="font: 8px 'DejaVu Sans', 'Bitstream Vera Sans', 'Computer Modern Sans Serif', 'Lucida Grande', 'Verdana', 'Geneva', 'Lucid', 'Arial', 'Helvetica', 'Avant Garde', sans-serif; text-anchor: middle" x="69.135175" y="140.31875" transform="rotate(-0 69.135175 140.31875)">0.70</text>
     </g>
    </g>
    <g id="xtick_2">
     <g id="line2d_2">
      <g>
       <use xlink:href="#m754218740f" x="95.146803" y="127.24" style="stroke: #000000; stroke-width: 0.8"/>
      </g>
     </g>
     <g id="text_2">
      <text style="font: 8px 'DejaVu Sans', 'Bitstream Vera Sans', 'Computer Modern Sans Serif', 'Lucida Grande', 'Verdana', 'Geneva', 'Lucid', 'Arial', 'Helvetica', 'Avant Garde', sans-serif; text-anchor: middle" x="95.146803" y="140.31875" transform="rotate(-0 95.146803 140.31875)">0.75</text>
     </g>
    </g>
    <g id="xtick_3">
     <g id="line2d_3">
      <g>
       <use xlink:href="#m754218740f" x="121.158432" y="127.24" style="stroke: #000000; stroke-width: 0.8"/>
      </g>
     </g>
     <g id="text_3">
      <text style="font: 8px 'DejaVu Sans', 'Bitstream Vera Sans', 'Computer Modern Sans Serif', 'Lucida Grande', 'Verdana', 'Geneva', 'Lucid', 'Arial', 'Helvetica', 'Avant Garde', sans-serif; text-anchor: middle" x="121.158432" y="140.31875" transform="rotate(-0 121.158432 140.31875)">0.80</text>
     </g>
    </g>
    <g id="xtick_4">
     <g id="line2d_4">
      <g>
       <use xlink:href="#m754218740f" x="147.170061" y="127.24" style="stroke: #000000; stroke-width: 0.8"/>
      </g>
     </g>
     <g id="text_4">
      <text style="font: 8px 'DejaVu Sans', 'Bitstream Vera Sans', 'Computer Modern Sans Serif', 'Lucida Grande', 'Verdana', 'Geneva', 'Lucid', 'Arial', 'Helvetica', 'Avant Garde', sans-serif; text-anchor: middle" x="147.170061" y="140.31875" transform="rotate(-0 147.170061 140.31875)">0.85</text>
     </g>
    </g>
    <g id="xtick_5">
     <g id="line2d_5">
      <g>
       <use xlink:href="#m754218740f" x="173.181689" y="127.24" style="stroke: #000000; stroke-width: 0.8"/>
      </g>
     </g>
     <g id="text_5">
      <text style="font: 8px 'DejaVu Sans', 'Bitstream Vera Sans', 'Computer Modern Sans Serif', 'Lucida Grande', 'Verdana', 'Geneva', 'Lucid', 'Arial', 'Helvetica', 'Avant Garde', sans-serif; text-anchor: middle" x="173.181689" y="140.31875" transform="rotate(-0 173.181689 140.31875)">0.90</text>
     </g>
    </g>
    <g id="xtick_6">
     <g id="line2d_6">
      <g>
       <use xlink:href="#m754218740f" x="199.193318" y="127.24" style="stroke: #000000; stroke-width: 0.8"/>
      </g>
     </g>
     <g id="text_6">
      <text style="font: 8px 'DejaVu Sans', 'Bitstream Vera Sans', 'Computer Modern Sans Serif', 'Lucida Grande', 'Verdana', 'Geneva', 'Lucid', 'Arial', 'Helvetica', 'Avant Garde', sans-serif; text-anchor: middle" x="199.193318" y="140.31875" transform="rotate(-0 199.193318 140.31875)">0.95</text>
     </g>
    </g>
    <g id="xtick_7">
     <g id="line2d_7">
      <g>
       <use xlink:href="#m754218740f" x="225.204947" y="127.24" style="stroke: #000000; stroke-width: 0.8"/>
      </g>
     </g>
     <g id="text_7">
      <text style="font: 8px 'DejaVu Sans', 'Bitstream Vera Sans', 'Computer Modern Sans Serif', 'Lucida Grande', 'Verdana', 'Geneva', 'Lucid', 'Arial', 'Helvetica', 'Avant Garde', sans-serif; text-anchor: middle" x="225.204947" y="140.31875" transform="rotate(-0 225.204947 140.31875)">1.00</text>
     </g>
    </g>
    <g id="text_8">
     <text style="font: 9px 'DejaVu Sans', 'Bitstream Vera Sans', 'Computer Modern Sans Serif', 'Lucida Grande', 'Verdana', 'Geneva', 'Lucid', 'Arial', 'Helvetica', 'Avant Garde', sans-serif; text-anchor: middle" x="141.967735" y="152.821094" transform="rotate(-0 141.967735 152.821094)">min. cosine similarity</text>
    </g>
   </g>
   <g id="matplotlib.axis_2">
    <g id="ytick_1">
     <g id="line2d_8">
      <defs>
       <path id="m4f84280350" d="M 0 0  L -3.5 0  " style="stroke: #000000; stroke-width: 0.8"/>
      </defs>
      <g>
       <use xlink:href="#m4f84280350" x="57.56" y="107.861912" style="stroke: #000000; stroke-width: 0.8"/>
      </g>
     </g>
     <g id="text_9">
      <text style="font: 8px 'DejaVu Sans', 'Bitstream Vera Sans', 'Computer Modern Sans Serif', 'Lucida Grande', 'Verdana', 'Geneva', 'Lucid', 'Arial', 'Helvetica', 'Avant Garde', sans-serif; text-anchor: end" x="50.56" y="110.901287" transform="rotate(-0 50.56 110.901287)">−1000</text>
     </g>
    </g>
    <g id="ytick_2">
     <g id="line2d_9">
      <g>
       <use xlink:href="#m4f84280350" x="57.56" y="77.241564" style="stroke: #000000; stroke-width: 0.8"/>
      </g>
     </g>
     <g id="text_10">
      <text style="font: 8px 'DejaVu Sans', 'Bitstream Vera Sans', 'Computer Modern Sans Serif', 'Lucida Grande', 'Verdana', 'Geneva', 'Lucid', 'Arial', 'Helvetica', 'Avant Garde', sans-serif; text-anchor: end" x="50.56" y="80.280939" transform="rotate(-0 50.56 80.280939)">0</text>
     </g>
    </g>
    <g id="ytick_3">
     <g id="line2d_10">
      <g>
       <use xlink:href="#m4f84280350" x="57.56" y="46.621215" style="stroke: #000000; stroke-width: 0.8"/>
      </g>
     </g>
     <g id="text_11">
      <text style="font: 8px 'DejaVu Sans', 'Bitstream Vera Sans', 'Computer Modern Sans Serif', 'Lucida Grande', 'Verdana', 'Geneva', 'Lucid', 'Arial', 'Helvetica', 'Avant Garde', sans-serif; text-anchor: end" x="50.56" y="49.66059" transform="rotate(-0 50.56 49.66059)">1000</text>
     </g>
    </g>
    <g id="ytick_4">
     <g id="line2d_11">
      <g>
       <use xlink:href="#m4f84280350" x="57.56" y="16.000866" style="stroke: #000000; stroke-width: 0.8"/>
      </g>
     </g>
     <g id="text_12">
      <text style="font: 8px 'DejaVu Sans', 'Bitstream Vera Sans', 'Computer Modern Sans Serif', 'Lucida Grande', 'Verdana', 'Geneva', 'Lucid', 'Arial', 'Helvetica', 'Avant Garde', sans-serif; text-anchor: end" x="50.56" y="19.040241" transform="rotate(-0 50.56 19.040241)">2000</text>
     </g>
    </g>
    <g id="text_13">
     <text style="font: 9px 'DejaVu Sans', 'Bitstream Vera Sans', 'Computer Modern Sans Serif', 'Lucida Grande', 'Verdana', 'Geneva', 'Lucid', 'Arial', 'Helvetica', 'Avant Garde', sans-serif; text-anchor: middle" x="17.624531" y="69.02" transform="rotate(-90 17.624531 69.02)">count</text>
    </g>
   </g>
   <g id="patch_48">
    <path d="M 57.56 127.24  L 57.56 10.8  " style="fill: none; stroke: #000000; stroke-width: 0.8; stroke-linejoin: miter; stroke-linecap: square"/>
   </g>
   <g id="patch_49">
    <path d="M 226.37547 127.24  L 226.37547 10.8  " style="fill: none; stroke: #000000; stroke-width: 0.8; stroke-linejoin: miter; stroke-linecap: square"/>
   </g>
   <g id="patch_50">
    <path d="M 57.56 127.24  L 226.37547 127.24  " style="fill: none; stroke: #000000; stroke-width: 0.8; stroke-linejoin: miter; stroke-linecap: square"/>
   </g>
   <g id="patch_51">
    <path d="M 57.56 10.8  L 226.37547 10.8  " style="fill: none; stroke: #000000; stroke-width: 0.8; stroke-linejoin: miter; stroke-linecap: square"/>
   </g>
   <g id="legend_1">
    <g id="patch_52">
     <path d="M 62.46 123.74  L 137.999844 123.74  Q 139.399844 123.74 139.399844 122.34  L 139.399844 92.215937  Q 139.399844 90.815937 137.999844 90.815937  L 62.46 90.815937  Q 61.06 90.815937 61.06 92.215937  L 61.06 122.34  Q 61.06 123.74 62.46 123.74  z " style="fill: #ffffff; opacity: 0.8; stroke: #cccccc; stroke-linejoin: miter"/>
    </g>
    <g id="patch_53">
     <path d="M 63.86 98.934844  L 77.86 98.934844  L 77.86 94.034844  L 63.86 94.034844  z " style="fill: #ffa500"/>
    </g>
    <g id="text_14">
     <text style="font: 7px 'DejaVu Sans', 'Bitstream Vera Sans', 'Computer Modern Sans Serif', 'Lucida Grande', 'Verdana', 'Geneva', 'Lucid', 'Arial', 'Helvetica', 'Avant Garde', sans-serif; text-anchor: start" x="83.46" y="98.934844" transform="rotate(-0 83.46 98.934844)">false positives</text>
    </g>
    <g id="patch_54">
     <path d="M 63.86 109.209531  L 77.86 109.209531  L 77.86 104.309531  L 63.86 104.309531  z " style="fill: #008000"/>
    </g>
    <g id="text_15">
     <text style="font: 7px 'DejaVu Sans', 'Bitstream Vera Sans', 'Computer Modern Sans Serif', 'Lucida Grande', 'Verdana', 'Geneva', 'Lucid', 'Arial', 'Helvetica', 'Avant Garde', sans-serif; text-anchor: start" x="83.46" y="109.209531" transform="rotate(-0 83.46 109.209531)">true positives</text>
    </g>
    <g id="patch_55">
     <path d="M 63.86 119.484219  L 77.86 119.484219  L 77.86 114.584219  L 63.86 114.584219  z " style="fill: #800080"/>
    </g>
    <g id="text_16">
     <text style="font: 7px 'DejaVu Sans', 'Bitstream Vera Sans', 'Computer Modern Sans Serif', 'Lucida Grande', 'Verdana', 'Geneva', 'Lucid', 'Arial', 'Helvetica', 'Avant Garde', sans-serif; text-anchor: start" x="83.46" y="119.484219" transform="rotate(-0 83.46 119.484219)">false negatives</text>
    </g>
   </g>
  </g>
 </g>
 <defs>
  <clipPath id="p927f0e2e3c">
   <rect x="57.56" y="10.8" width="168.81547" height="116.44"/>
  </clipPath>
 </defs>
</svg>