<svg xmlns="http://www.w3.org/2000/svg" xmlns:dc="http://purl.org/dc/elements/1.1/" xmlns:ns2="http://creativecommons.org/ns#" xmlns:rdf="http://www.w3.org/1999/02/22-rdf-syntax-ns#" xmlns:xlink="http://www.w3.org/1999/xlink" width="216pt" height="144pt" viewBox="0 0 216 144" version="1.1">
 <metadata>
  <rdf:RDF>
   <ns2:Work>
    <dc:type rdf:resource="http://purl.org/dc/dcmitype/StillImage"/>
    <dc:date>2024-12-24T01:41:41.922220</dc:date>
    <dc:format>image/svg+xml</dc:format>
    <dc:creator>
     <ns2:Agent>
      <dc:title>Matplotlib v3.8.2, https://matplotlib.org/</dc:title>
     </ns2:Agent>
    </dc:creator>
   </ns2:Work>
  </rdf:RDF>
 </metadata>
 <defs>
  <style type="text/css">*{stroke-linejoin: round; stroke-linecap: butt}</style>
 </defs>
 <g id="figure_1">
  <g id="patch_1">
   <path d="M 0 144  L 216 144  L 216 0  L 0 0  z " style="fill: #ffffff"/>
  </g>
  <g id="axes_1">
   <g id="patch_2">
    <path d="M 53.42 103.48  L 202.041429 103.48  L 202.041429 10.8  L 53.42 10.8  z " style="fill: #ffffff"/>
   </g>
   <g id="PathCollection_1">
    <defs>
     <path id="m1d73d29224" d="M 0 3  C 0.795609 3 1.55874 2.683901 2.12132 2.12132  C 2.683901 1.55874 3 0.795609 3 0  C 3 -0.795609 2.683901 -1.55874 2.12132 -2.12132  C 1.55874 -2.683901 0.795609 -3 0 -3  C -0.795609 -3 -1.55874 -2.683901 -2.12132 -2.12132  C -2.683901 -1.55874 -3 -0.795609 -3 0  C -3 0.795609 -2.683901 1.55874 -2.12132 2.12132  C -1.55874 2.683901 -0.795609 3 0 3  z " style="stroke: #1f77b4"/>
    </defs>
    <g clip-path="url(#p2b637faf87)">
     <use xlink:href="#m1d73d29224" x="147.782812" y="83.826287" style="fill: #1f77b4; stroke: #1f77b4"/>
    </g>
   </g>
   <g id="PathCollection_2">
    <defs>
     <path id="ma4d04729d1" d="M 0 3  C 0.795609 3 1.55874 2.683901 2.12132 2.12132  C 2.683901 1.55874 3 0.795609 3 0  C 3 -0.795609 2.683901 -1.55874 2.12132 -2.12132  C 1.55874 -2.683901 0.795609 -3 0 -3  C -0.795609 -3 -1.55874 -2.683901 -2.12132 -2.12132  C -2.683901 -1.55874 -3 -0.795609 -3 0  C -3 0.795609 -2.683901 1.55874 -2.12132 2.12132  C -1.55874 2.683901 -0.795609 3 0 3  z " style="stroke: #ff7f0e"/>
    </defs>
    <g clip-path="url(#p2b637faf87)">
     <use xlink:href="#ma4d04729d1" x="147.782812" y="57.274287" style="fill: #ff7f0e; stroke: #ff7f0e"/>
    </g>
   </g>
   <g id="matplotlib.axis_1">
    <g id="xtick_1">
     <g id="line2d_1">
      <defs>
       <path id="m41d75af94c" d="M 0 0  L 0 3.5  " style="stroke: #000000; stroke-width: 0.8"/>
      </defs>
      <g>
       <use xlink:href="#m41d75af94c" x="53.42" y="103.48" style="stroke: #000000; stroke-width: 0.8"/>
      </g>
     </g>
     <g id="text_1">
      <text style="font: 10px 'DejaVu Sans', 'Bitstream Vera Sans', 'Computer Modern Sans Serif', 'Lucida Grande', 'Verdana', 'Geneva', 'Lucid', 'Arial', 'Helvetica', 'Avant Garde', sans-serif; text-anchor: middle" x="53.42" y="118.078438" transform="rotate(-0 53.42 118.078438)">0.00</text>
     </g>
    </g>
    <g id="xtick_2">
     <g id="line2d_2">
      <g>
       <use xlink:href="#m41d75af94c" x="100.601406" y="103.48" style="stroke: #000000; stroke-width: 0.8"/>
      </g>
     </g>
     <g id="text_2">
      <text style="font: 10px 'DejaVu Sans', 'Bitstream Vera Sans', 'Computer Modern Sans Serif', 'Lucida Grande', 'Verdana', 'Geneva', 'Lucid', 'Arial', 'Helvetica', 'Avant Garde', sans-serif; text-anchor: middle" x="100.601406" y="118.078438" transform="rotate(-0 100.601406 118.078438)">0.05</text>
     </g>
    </g>
    <g id="xtick_3">
     <g id="line2d_3">
      <g>
       <use xlink:href="#m41d75af94c" x="147.782812" y="103.48" style="stroke: #000000; stroke-width: 0.8"/>
      </g>
     </g>
     <g id="text_3">
      <text style="font: 10px 'DejaVu Sans', 'Bitstream Vera Sans', 'Computer Modern Sans Serif', 'Lucida Grande', 'Verdana', 'Geneva', 'Lucid', 'Arial', 'Helvetica', 'Avant Garde', sans-serif; text-anchor: middle" x="147.782812" y="118.078438" transform="rotate(-0 147.782812 118.078438)">0.10</text>
     </g>
    </g>
    <g id="xtick_4">
     <g id="line2d_4">
      <g>
       <use xlink:href="#m41d75af94c" x="194.964218" y="103.48" style="stroke: #000000; stroke-width: 0.8"/>
      </g>
     </g>
     <g id="text_4">
      <text style="font: 10px 'DejaVu Sans', 'Bitstream Vera Sans', 'Computer Modern Sans Serif', 'Lucida Grande', 'Verdana', 'Geneva', 'Lucid', 'Arial', 'Helvetica', 'Avant Garde', sans-serif; text-anchor: middle" x="194.964218" y="118.078438" transform="rotate(-0 194.964218 118.078438)">0.15</text>
     </g>
    </g>
    <g id="text_5">
     
     <g transform="translate(116.840714 130.996719)">
      <text>
       <tspan style="font: oblique 9px 'DejaVu Sans'" x="0" y="-0.953125">α</tspan>
       <tspan style="font: 6.3px 'DejaVu Sans'" x="5.932617 9.931641 13.930664 17.785107" y="0.5234375">bbox</tspan>
      </text>
     </g>
    </g>
   </g>
   <g id="matplotlib.axis_2">
    <g id="ytick_1">
     <g id="line2d_5">
      <defs>
       <path id="mcdbd559567" d="M 0 0  L -3.5 0  " style="stroke: #000000; stroke-width: 0.8"/>
      </defs>
      <g>
       <use xlink:href="#mcdbd559567" x="53.42" y="99.267273" style="stroke: #000000; stroke-width: 0.8"/>
      </g>
     </g>
     <g id="text_6">
      <text style="font: 10px 'DejaVu Sans', 'Bitstream Vera Sans', 'Computer Modern Sans Serif', 'Lucida Grande', 'Verdana', 'Geneva', 'Lucid', 'Arial', 'Helvetica', 'Avant Garde', sans-serif; text-anchor: end" x="46.42" y="103.066491" transform="rotate(-0 46.42 103.066491)">0</text>
     </g>
    </g>
    <g id="ytick_2">
     <g id="line2d_6">
      <g>
       <use xlink:href="#mcdbd559567" x="53.42" y="61.004879" style="stroke: #000000; stroke-width: 0.8"/>
      </g>
     </g>
     <g id="text_7">
      <text style="font: 10px 'DejaVu Sans', 'Bitstream Vera Sans', 'Computer Modern Sans Serif', 'Lucida Grande', 'Verdana', 'Geneva', 'Lucid', 'Arial', 'Helvetica', 'Avant Garde', sans-serif; text-anchor: end" x="46.42" y="64.804098" transform="rotate(-0 46.42 64.804098)">5</text>
     </g>
    </g>
    <g id="ytick_3">
     <g id="line2d_7">
      <g>
       <use xlink:href="#mcdbd559567" x="53.42" y="22.742486" style="stroke: #000000; stroke-width: 0.8"/>
      </g>
     </g>
     <g id="text_8">
      <text style="font: 10px 'DejaVu Sans', 'Bitstream Vera Sans', 'Computer Modern Sans Serif', 'Lucida Grande', 'Verdana', 'Geneva', 'Lucid', 'Arial', 'Helvetica', 'Avant Garde', sans-serif; text-anchor: end" x="46.42" y="26.541705" transform="rotate(-0 46.42 26.541705)">10</text>
     </g>
    </g>
    <g id="text_9">
     
     <g transform="translate(27.823281 81.35) rotate(-90)">
      <text>
       <tspan style="font: 9px 'DejaVu Sans'" x="0 5.427246 11.711426 17.613281" y="-0.3125">PCK@</tspan>
       <tspan style="font: oblique 9px 'DejaVu Sans'" x="26.613281" y="-0.3125">α</tspan>
       <tspan style="font: 6.3px 'DejaVu Sans'" x="32.545898 36.544922 40.543945 44.398389" y="1.1640625">bbox</tspan>
      </text>
     </g>
    </g>
   </g>
   <g id="line2d_8">
    <path d="M 53.42 99.267273  L 62.856281 99.108961  L 72.292562 98.62939  L 81.728844 97.840629  L 91.165125 96.734863  L 100.601406 95.322401  L 110.037687 93.60924  L 119.473968 91.601261  L 128.910249 89.302901  L 138.346531 86.705921  L 147.782812 83.826287  L 157.219093 80.667759  L 166.655374 77.239903  L 176.091655 73.543351  L 185.527937 69.573554  L 194.964218 65.351374  " clip-path="url(#p2b637faf87)" style="fill: none; stroke: #1f77b4; stroke-width: 1.5; stroke-linecap: square"/>
   </g>
   <g id="line2d_9">
    <path d="M 53.42 99.267273  L 62.856281 98.756114  L 72.292562 97.317939  L 81.728844 94.805464  L 91.165125 91.738512  L 100.601406 87.926481  L 110.037687 82.970841  L 119.473968 77.556024  L 128.910249 71.248846  L 138.346531 64.768394  L 147.782812 57.274287  L 157.219093 49.788845  L 166.655374 41.099147  L 176.091655 32.660697  L 185.527937 23.858372  L 194.964218 15.012727  " clip-path="url(#p2b637faf87)" style="fill: none; stroke: #ff7f0e; stroke-width: 1.5; stroke-linecap: square"/>
   </g>
   <g id="patch_3">
    <path d="M 53.42 103.48  L 53.42 10.8  " style="fill: none; stroke: #000000; stroke-width: 0.8; stroke-linejoin: miter; stroke-linecap: square"/>
   </g>
   <g id="patch_4">
    <path d="M 202.041429 103.48  L 202.041429 10.8  " style="fill: none; stroke: #000000; stroke-width: 0.8; stroke-linejoin: miter; stroke-linecap: square"/>
   </g>
   <g id="patch_5">
    <path d="M 53.42 103.48  L 202.041429 103.48  " style="fill: none; stroke: #000000; stroke-width: 0.8; stroke-linejoin: miter; stroke-linecap: square"/>
   </g>
   <g id="patch_6">
    <path d="M 53.42 10.8  L 202.041429 10.8  " style="fill: none; stroke: #000000; stroke-width: 0.8; stroke-linejoin: miter; stroke-linecap: square"/>
   </g>
   <g id="text_10">
    <text style="fill: #1f77b4; font: 8px 'DejaVu Sans', 'Bitstream Vera Sans', 'Computer Modern Sans Serif', 'Lucida Grande', 'Verdana', 'Geneva', 'Lucid', 'Arial', 'Helvetica', 'Avant Garde', sans-serif; text-anchor: start" x="152.500952" y="89.905037" transform="rotate(-0 152.500952 89.905037)">2.02%</text>
   </g>
   <g id="text_11">
    <text style="fill: #ff7f0e; font: 8px 'DejaVu Sans', 'Bitstream Vera Sans', 'Computer Modern Sans Serif', 'Lucida Grande', 'Verdana', 'Geneva', 'Lucid', 'Arial', 'Helvetica', 'Avant Garde', sans-serif; text-anchor: start" x="152.500952" y="63.353037" transform="rotate(-0 152.500952 63.353037)">5.49%</text>
   </g>
   <g id="legend_1">
    <g id="patch_7">
     <path d="M 59.72 44.420625  L 152.562031 44.420625  Q 154.362031 44.420625 154.362031 42.620625  L 154.362031 17.1  Q 154.362031 15.3 152.562031 15.3  L 59.72 15.3  Q 57.92 15.3 57.92 17.1  L 57.92 42.620625  Q 57.92 44.420625 59.72 44.420625  z " style="fill: #ffffff; opacity: 0.8; stroke: #cccccc; stroke-linejoin: miter"/>
    </g>
    <g id="line2d_10">
     <path d="M 61.52 22.588594  L 70.52 22.588594  L 79.52 22.588594  " style="fill: none; stroke: #ff7f0e; stroke-width: 1.5; stroke-linecap: square"/>
    </g>
    <g id="text_12">
     <text style="font: 9px 'DejaVu Sans', 'Bitstream Vera Sans', 'Computer Modern Sans Serif', 'Lucida Grande', 'Verdana', 'Geneva', 'Lucid', 'Arial', 'Helvetica', 'Avant Garde', sans-serif; text-anchor: start" x="86.72" y="25.738594" transform="rotate(-0 86.72 25.738594)">Same position</text>
    </g>
    <g id="line2d_11">
     <path d="M 61.52 35.798906  L 70.52 35.798906  L 79.52 35.798906  " style="fill: none; stroke: #1f77b4; stroke-width: 1.5; stroke-linecap: square"/>
    </g>
    <g id="text_13">
     <text style="font: 9px 'DejaVu Sans', 'Bitstream Vera Sans', 'Computer Modern Sans Serif', 'Lucida Grande', 'Verdana', 'Geneva', 'Lucid', 'Arial', 'Helvetica', 'Avant Garde', sans-serif; text-anchor: start" x="86.72" y="38.948906" transform="rotate(-0 86.72 38.948906)">Random</text>
    </g>
   </g>
  </g>
 </g>
 <defs>
  <clipPath id="p2b637faf87">
   <rect x="53.42" y="10.8" width="148.621429" height="92.68"/>
  </clipPath>
 </defs>
</svg>